<svg width="30" height="30" viewBox="0 0 30 30" fill="none" xmlns="http://www.w3.org/2000/svg">
<path d="M28.2091 14.2718L25.3125 15.7201L21.5625 8.53858L24.4886 7.07554C24.7084 6.96562 24.9626 6.94643 25.1965 7.0221C25.4303 7.09777 25.6251 7.26225 25.7389 7.48012L28.6209 12.9993C28.6785 13.1097 28.7136 13.2304 28.724 13.3545C28.7345 13.4785 28.7201 13.6034 28.6818 13.7219C28.6435 13.8403 28.5819 13.95 28.5008 14.0444C28.4196 14.1388 28.3205 14.2161 28.2091 14.2718V14.2718Z" stroke="#FDFDFD" stroke-width="1.5" stroke-linecap="round" stroke-linejoin="round"/>
<path d="M4.6873 15.5946L1.7907 14.1463C1.67934 14.0906 1.58019 14.0133 1.49903 13.9189C1.41787 13.8245 1.35633 13.7148 1.318 13.5964C1.27967 13.4779 1.26531 13.353 1.27578 13.229C1.28624 13.1049 1.32131 12.9842 1.37894 12.8738L4.26092 7.35464C4.37469 7.13677 4.56946 6.97229 4.80331 6.89661C5.03716 6.82094 5.29137 6.84013 5.51121 6.95005L8.4373 8.41309L4.6873 15.5946Z" stroke="#FDFDFD" stroke-width="1.5" stroke-linecap="round" stroke-linejoin="round"/>
<path d="M25.3125 15.7198L23.4375 17.9134L19.1253 22.2255C19.0109 22.34 18.8687 22.4229 18.7127 22.4661C18.5567 22.5093 18.3921 22.5114 18.235 22.4721L11.4432 20.7742C11.3158 20.7423 11.1965 20.6841 11.0931 20.6032L4.6875 15.5942" stroke="#FDFDFD" stroke-width="1.5" stroke-linecap="round" stroke-linejoin="round"/>
<path d="M23.437 17.9136L18.2808 14.1636L16.7808 15.2886C16.1316 15.7754 15.3421 16.0386 14.5308 16.0386C13.7194 16.0386 12.9299 15.7754 12.2808 15.2886L11.6455 14.8121C11.5381 14.7316 11.4492 14.6288 11.3849 14.5109C11.3206 14.393 11.2824 14.2626 11.2729 14.1286C11.2633 13.9946 11.2827 13.8602 11.3297 13.7343C11.3767 13.6085 11.4501 13.4942 11.5451 13.3992L16.1312 8.81316C16.2182 8.72611 16.3216 8.65705 16.4353 8.60994C16.5491 8.56282 16.671 8.53857 16.7941 8.53857H21.562" stroke="#FDFDFD" stroke-width="1.5" stroke-linecap="round" stroke-linejoin="round"/>
<path d="M8.50488 8.41284L14.5189 6.65954C14.7338 6.59691 14.9639 6.61319 15.1678 6.70544L19.2188 8.53844" stroke="#FDFDFD" stroke-width="1.5" stroke-linecap="round" stroke-linejoin="round"/>
<path d="M13.125 24.9447L9.59303 24.0617C9.44971 24.0259 9.31688 23.9567 9.20538 23.8598L6.5625 21.5625" stroke="#FDFDFD" stroke-width="1.5" stroke-linecap="round" stroke-linejoin="round"/>
</svg>
