<svg width="30" height="31" viewBox="0 0 30 31" fill="none" xmlns="http://www.w3.org/2000/svg">
<path d="M11.25 11.75H18.75" stroke="#357D70" stroke-width="1.5" stroke-linecap="round" stroke-linejoin="round"/>
<path d="M11.25 15.5H18.75" stroke="#357D70" stroke-width="1.5" stroke-linecap="round" stroke-linejoin="round"/>
<path d="M11.25 19.25H15" stroke="#357D70" stroke-width="1.5" stroke-linecap="round" stroke-linejoin="round"/>
<path d="M18.3617 25.8125H5.625C5.37636 25.8125 5.1379 25.7137 4.96209 25.5379C4.78627 25.3621 4.6875 25.1236 4.6875 24.875V6.125C4.6875 5.87636 4.78627 5.6379 4.96209 5.46209C5.1379 5.28627 5.37636 5.1875 5.625 5.1875H24.375C24.6236 5.1875 24.8621 5.28627 25.0379 5.46209C25.2137 5.6379 25.3125 5.87636 25.3125 6.125V18.8617C25.3125 18.9848 25.2883 19.1067 25.2411 19.2204C25.194 19.3342 25.125 19.4375 25.0379 19.5246L19.0246 25.5379C18.9375 25.625 18.8342 25.694 18.7204 25.7411C18.6067 25.7883 18.4848 25.8125 18.3617 25.8125V25.8125Z" stroke="#357D70" stroke-width="1.5" stroke-linecap="round" stroke-linejoin="round"/>
<path d="M25.2277 19.249H18.75V25.7271" stroke="#357D70" stroke-width="1.5" stroke-linecap="round" stroke-linejoin="round"/>
</svg>
