<svg width="30" height="30" viewBox="0 0 30 30" fill="none" xmlns="http://www.w3.org/2000/svg">
<path d="M6.12942 10.7342C6.34036 10.2889 6.58645 9.86704 6.8677 9.45689L6.82083 6.41001C6.82083 6.12876 6.93801 5.85923 7.16067 5.67173C8.25051 4.75767 9.4927 4.01939 10.8638 3.5272C11.1333 3.43345 11.4263 3.45689 11.6607 3.60923L14.274 5.17955C14.7661 5.14439 15.2583 5.14439 15.7505 5.17955L18.3638 3.60923C18.6099 3.46861 18.9029 3.43345 19.1724 3.5272C20.5083 4.00767 21.7622 4.72251 22.8755 5.66001C23.0864 5.83579 23.2154 6.11704 23.2036 6.39829L23.1568 9.44517C23.438 9.85533 23.6841 10.2772 23.895 10.7225L26.5552 12.1991C26.8013 12.3397 26.9771 12.5741 27.0239 12.8553C27.27 14.2499 27.2818 15.703 27.0239 17.121C26.9771 17.4022 26.8013 17.6366 26.5552 17.7772L23.895 19.2538C23.6841 19.6991 23.438 20.1209 23.1568 20.5311L23.2036 23.578C23.2036 23.8592 23.0864 24.1288 22.8638 24.3163C21.7739 25.2303 20.5318 25.9686 19.1607 26.4608C18.8911 26.5545 18.5982 26.5311 18.3638 26.3788L15.7505 24.8084C15.2583 24.8436 14.7661 24.8436 14.274 24.8084L11.6607 26.3788C11.4146 26.5194 11.1216 26.5545 10.8521 26.4608C9.51614 25.9803 8.26223 25.2655 7.14895 24.328C6.93801 24.1522 6.80911 23.8709 6.82083 23.5897L6.8677 20.5428C6.58645 20.1327 6.34036 19.7108 6.12942 19.2655L3.46926 17.7889C3.22317 17.6483 3.04739 17.4139 3.00051 17.1327C2.75442 15.7381 2.7427 14.285 3.00051 12.867C3.04739 12.5858 3.22317 12.3514 3.46926 12.2108L6.12942 10.7342Z" stroke="#FDFDFD" stroke-width="1.5" stroke-miterlimit="10" stroke-linecap="round" stroke-linejoin="round"/>
<path d="M15 20.625C18.1066 20.625 20.625 18.1066 20.625 15C20.625 11.8934 18.1066 9.375 15 9.375C11.8934 9.375 9.375 11.8934 9.375 15C9.375 18.1066 11.8934 20.625 15 20.625Z" stroke="#FDFDFD" stroke-width="1.5" stroke-miterlimit="10" stroke-linecap="round" stroke-linejoin="round"/>
</svg>
